# xmcd CD database file
#
# Track frame offsets:
#	150
#	13228
#	22754
#	24458
#	35476
#	44901
#	54750
#	65241
#	76885
#	90001
#	103705
#	116216
#	130142
#	140733
#	151791
#	164247
#	178435
#	193997
#
# Disc length: 2804 seconds
#
# Revision: 0
# Processed by: cddbd v1.5.2PL0 Copyright (c) Steve Scherf et al.
# Submitted via: CDex 1.70beta2
#
DISCID=fd0af212
DTITLE=Miles Davis - The Complete Recordings 1945 - 1960 - 08. The Charlie Parker Years Vol. 6
DYEAR=1948
DGENRE=Jazz
TTITLE0=Ah-leu-cha (Tk 2)
TTITLE1=Constellation (TK 3)
TTITLE2=Constellation (TK 4)
TTITLE3=Constellation (TK 5)
TTITLE4=Perhaps (Tk 1)
TTITLE5=Perhaps (Tk 3)
TTITLE6=Perhaps (Tk 6)
TTITLE7=Perhaps (Tk 7)
TTITLE8=Marmaduke (Tk 5)
TTITLE9=Marmaduke (Tk 9)
TTITLE10=Marmaduke (Tk 12)
TTITLE11=Steeplechase (Tk 2)
TTITLE12=Merry Go Round (Tk 1)
TTITLE13=Merry Go Round (Tk 2)
TTITLE14=Au Privave
TTITLE15=She Rote
TTITLE16=K.C.Blues
TTITLE17=Star Eyes
EXTD=YEAR: 1948
EXTT0=
EXTT1=
EXTT2=
EXTT3=
EXTT4=
EXTT5=
EXTT6=
EXTT7=
EXTT8=
EXTT9=
EXTT10=
EXTT11=
EXTT12=
EXTT13=
EXTT14=
EXTT15=
EXTT16=
EXTT17=
PLAYORDER=
